# xmcd
#
# Track frame offsets:
#	150
#	12222
#	23195
#	34692
#	43917
#	52830
#	66912
#	76530
#	96955
#	106507
#	124130
#	139252
#	150482
#	168305
#	177125
#	192612
#	204817
#	219475
#	227950
#	239082
#
# Disc length: 3269 seconds
#
# Revision: 4
# Processed by: cddbd v1.5.2PL0 Copyright (c) Steve Scherf et al.
# Submitted via: audiograbber 1.83.01
#
DISCID=070cc314
DTITLE=Various Artist - Home for Christmas [Disc B]
DYEAR=1989
DGENRE=Holiday
TTITLE0=oakam, Dwight - Santa Claus is Back in Town
TTITLE1=Louvin Brothers - While Shepherds Watched Their Flocks
TTITLE2=Sonny James - Christmas in My Hometown
TTITLE3=Wynette, Tammy - Away in a Manger
TTITLE4=Dean, Jimmy - Jingle Bells
TTITLE5=Robbins, Marty - Hark! The Herald Angels Sing
TTITLE6=Anderson, Lynn - Soon it Will be Christmas Day
TTITLE7=McCoy, Charlie - The First Noel
TTITLE8=Thompson, Hank - Here Comes Santa Claus
TTITLE9=Oak Ridge Boys - O Holy Night
TTITLE10=Alabama - Christmas Memories
TTITLE11=Cash, Johnny - I Heard the Bells on Christmas Day
TTITLE12=Price, Ray - The Little Drummer Boy
TTITLE13=Lynn, Loretta - Frosty the Snowman
TTITLE14=Thomas, B.J. - O Little Town of Bethlehem
TTITLE15=Autry, Gene - Santa Claus is Comin' to Town
TTITLE16=Whitman, Slim - Angels We Have Heard on High
TTITLE17=Pride, Charley - Deck the Halls
TTITLE18=Smith, Connie - Go Tell it on the Mountain
TTITLE19=Everly Brothers - We Wish You a Merry Christmas
EXTD=was sold in a two disc set
EXTT0=Dwight Yoakim\n
EXTT1=The Louvin Brothers\n
EXTT2=Sonny James\n
EXTT3=Tammy Wynette and The O'Kanes\n
EXTT4=Jimmy Dean\n
EXTT5=Marty Robbins\n
EXTT6=Lynn Anderson\n
EXTT7=Charlie McCoy\n
EXTT8=Hank Thompson\n
EXTT9=The Oak Ridge Boys\n
EXTT10=Alabama\n
EXTT11=Johnny Cash\n
EXTT12=Ray Price\n
EXTT13=Loretta Lynn\n
EXTT14=B.J. Thomas\n
EXTT15=Gene Autry\n
EXTT16=Slim Whitman\n
EXTT17=Charley Pride\n
EXTT18=Connie Smith\n
EXTT19=The Everly Brothers and The Boys Town \nChoir\n
PLAYORDER=
